PathFileType	4	(X/Y/Z)	KinectSkeleton.trc																																																	
DataRate	CameraRate	NumFrames	NumMarkers	Units	OrigDataRate	OrigDataStartFrame	OrigNumFrames																																													
60	60	15	17	mm	60	62	300																																													
Frame#	Time	Neck			ShoulderMid			R.Shoulder			L.Shoulder			R.Elbow			L.Elbow			R.Wrist			L.Wrist			HipCenter			R.Hip			L.Hip			R.Knee			L.Knee			R.Ankle			L.Ankle			R.Foot			L.Foot		
		X1	Y1	Z1	X2	Y2	Z2	X3	Y3	Z3	X4	Y4	Z4	X5	Y5	Z5	X6	Y6	Z6	X7	Y7	Z7	X8	Y8	Z8	X9	Y9	Z9	X10	Y10	Z10	X11	Y11	Z11	X12	Y12	Z12	X13	Y13	Z13	X14	Y14	Z14	X15	Y15	Z15	X16	Y16	Z16	X17	Y17	Z17
																																																				
62	4.377	-1006.165	1447.7	492.083	-1006.165	1447.7	492.083	-1011.008	1382.017	658.016	-992.259	1376.788	317.566	-1063.258	1117.24	756.194	-1016.314	1110.008	229.869	-976.672	899.561	806.252	-905.494	902.505	204.909	-1025.326	900.788	524.411	-1037.598	907.844	607.07	-1011.717	892.964	432.745	-1044.048	504.053	664.317	-1031.369	485.941	406.857	-1084.411	113.917	705.081	-1081.17	99.703	382.017	-949.004	17.244	761.864	-911.167	12.5	380.013
63	4.437	-1005.718	1446.408	485.69	-1005.718	1446.408	485.69	-1012.785	1381.07	651.36	-988.843	1376.382	311.959	-1063.105	1119.863	757.57	-1015.666	1111.555	221.57	-982.453	903.009	817.19	-908.242	903.197	194.851	-1021.52	900.784	518.409	-1034.437	907.432	600.779	-1007.195	893.411	427.064	-1042.408	505.32	661.874	-1029.414	487.357	405.311	-1081.446	116.409	705.506	-1081.61	102.315	383.08	-948.828	17.649	763.83	-913.324	12.953	379.628
64	4.512	-1004.941	1446.928	482.417	-1004.941	1446.928	482.417	-1012.989	1380.116	648.179	-987.226	1377.096	308.238	-1063.212	1120.81	760.877	-1017.926	1111.929	217.833	-979.83	907.276	830.369	-909.216	903.282	193.312	-1021.125	900.175	518.295	-1034.422	907.642	600.753	-1006.379	891.894	426.853	-1043.417	504.528	662.057	-1028.861	484.783	405.561	-1083.244	114.751	706.345	-1081.454	98.759	383.809	-946.875	18.478	761.441	-910.383	13.933	377.221
65	4.577	-1002.781	1439.629	477.284	-1002.781	1439.629	477.284	-1013.995	1376.639	642.909	-985.503	1371.816	303.67	-1067.433	1136.458	788.112	-1018.136	1107.585	215.692	-987.405	935.095	887.334	-913.96	898.228	189.186	-1017.57	895.865	515.662	-1032.31	903.759	597.399	-1001.225	887.11	425.019	-1042.266	502.938	659.818	-1028.06	482.275	405.117	-1083.532	115.342	704.118	-1084.066	98.755	383.1	-948.578	20.014	761.45	-914.563	12.797	379.421
66	4.656	-1002.389	1438.332	473.827	-1002.389	1438.332	473.827	-1020.846	1373.884	639.015	-983.434	1365.104	301.864	-1068.59	1146.929	806.254	-1019.24	1099.965	217.198	-973.825	973.081	939.235	-910.961	892.136	193.609	-1015.596	894.377	515.95	-1031.782	902.532	597.455	-997.647	885.333	425.563	-1042.5	501.345	659.503	-1027.611	480.404	405.429	-1081.725	113.217	703.784	-1084.911	96.817	382.451	-945.995	19.427	762.237	-914.938	11.419	379.646
67	4.717	-998.817	1437.609	472.328	-998.817	1437.609	472.328	-1019.76	1382.845	639.164	-980.977	1360.612	302.278	-1060.707	1181.654	837.132	-1018.971	1095.968	219.373	-959.935	1022.972	982.962	-907.854	889.997	198.793	-1013.677	895.143	516	-1030.335	902.733	597.249	-995.203	886.726	425.897	-1039.613	502.709	660.347	-1025.097	482.828	405.563	-1083.939	116.051	703.916	-1082.123	100.156	383.182	-952.118	17.872	762.791	-913.457	13.256	380.073
68	4.793	-997.815	1440.161	467.738	-997.815	1440.161	467.738	-1023.188	1387.127	635.884	-979.76	1358.652	298.635	-1059.62	1211.915	860.031	-1017.93	1089.184	226.721	-959.444	1079.407	1032.221	-907.336	880.757	214.552	-1012.891	894.905	515.608	-1030.626	902.264	597.135	-993.224	886.745	425.199	-1041.386	499.881	659.741	-1026.054	480.774	404.812	-1083.898	110.789	703.411	-1085.465	96.309	381.336	-945.745	20.136	762.768	-913.87	12.813	380.074
69	4.866	-993.146	1438.067	465.857	-993.146	1438.067	465.857	-1016.619	1383.768	633.853	-975.704	1356.617	297.179	-1072.722	1222.385	863.596	-1025.781	1088.676	228.926	-962.596	1152.281	1063.587	-911.62	882.317	226.83	-1012.577	894.233	516.182	-1030.032	902.024	597.575	-993.22	885.593	425.921	-1041.798	500.435	660.353	-1024.691	480.233	405.842	-1084.01	111.949	703.356	-1082.883	96.319	381.874	-946.747	20.074	761.965	-911.799	12.555	380.649
70	4.948	-992.089	1435.233	461.669	-992.089	1435.233	461.669	-1020.225	1391.486	630.426	-975.44	1344.65	297.582	-1056.156	1281.985	891.32	-1020.339	1074.836	238.096	-946.622	1229.333	1095.848	-910.907	867.072	245.483	-1014.662	894.124	517.125	-1031.312	901.902	598.359	-996.197	885.499	427.04	-1040.782	501.716	660.41	-1025.292	481.541	406.685	-1084.552	114.905	703.203	-1081.87	98.852	383.42	-949.472	21.291	762.129	-912.74	12.875	379.805
71	5.011	-995.387	1439.315	457.753	-995.387	1439.315	457.753	-1025.163	1401.967	628.702	-974.66	1339.171	297.997	-1049.132	1341.768	908.098	-1024.086	1067.081	245.48	-953.488	1329.152	1127.028	-912.634	859.46	262.436	-1016.667	896.098	520.635	-1033.424	903.671	602.345	-998.084	887.699	430.023	-1036.639	501.243	665.373	-1026.6	481.55	407.253	-1091.021	112.961	702.407	-1085.063	97.069	382.031	-954.068	22.822	765.204	-914.503	11.521	379.764
72	5.082	-999.376	1441.823	455.32	-999.376	1441.823	455.32	-1025.86	1406.493	628.121	-976.238	1336.548	298.058	-1051.456	1368.075	912.37	-1019.24	1061.743	247.955	-962.282	1387.164	1134.6	-917.87	849.841	280.975	-1017.55	897.336	524.128	-1034.444	905.172	606.132	-998.815	888.645	433.188	-1041.075	500.442	664.688	-1025.477	480.818	408.578	-1089.105	109.73	701.947	-1080.731	94.359	381.946	-949.674	21.883	764.532	-907.9	11.662	381.135
73	5.164	-997.795	1443.821	456.047	-997.795	1443.821	456.047	-1024.632	1411.863	629.764	-976.168	1336.432	299.362	-1055.021	1392.946	916.338	-1018.624	1060.232	251.946	-973.13	1434.566	1139.04	-914.557	849.286	287.507	-1019.204	898.288	527.01	-1035.976	906.105	609.289	-1000.605	889.62	435.766	-1041.724	499.852	665.564	-1027.059	480.716	409.263	-1088.94	107.784	701.689	-1082.733	93.302	380.889	-946.731	22.891	763.524	-908.115	13.115	380.952
74	5.242	-996.355	1441.152	451.566	-996.355	1441.152	451.566	-1023.977	1416.192	625.637	-974.308	1329.749	298.106	-1057.061	1422.939	912.093	-1017.611	1053.902	251.529	-979.721	1479.702	1132.741	-913.563	843.518	288.454	-1019.636	897.55	527.318	-1034.506	905.123	609.877	-1003.146	889.153	435.764	-1040.964	499.242	665.011	-1027.977	480.579	410.595	-1085.467	107.486	702.486	-1083.178	93.476	383.902	-942.517	23.319	762.959	-909.428	12.084	379.992
75	5.309	-992.52	1442.964	449.336	-992.52	1442.964	449.336	-1020.31	1418.019	623.946	-972.257	1329.47	296.942	-1058.346	1445.569	908.809	-1014.628	1052.67	253.669	-993.188	1526.985	1125.889	-908.979	842.795	290.381	-1020.209	899.867	529.975	-1036.584	908.232	612.252	-1002.05	890.59	438.732	-1039.007	501.885	667.128	-1026.887	481.793	411.052	-1087.648	109.906	700.869	-1082.837	94.588	382.099	-947.489	22.418	763.601	-909.94	10.914	380.215
76	5.369	-992.708	1442.488	448.954	-992.708	1442.488	448.954	-1020.957	1418.46	623.355	-971.821	1328.796	297.018	-1060.946	1449.388	907.323	-1013.647	1052.167	253.893	-998.157	1534.165	1123.558	-908.788	842.159	290.636	-1019.919	900.041	530.146	-1036.348	908.437	612.327	-1001.7	890.73	439.01	-1039.328	502.545	667.615	-1026.422	482.327	411.24	-1088.225	111.033	701.951	-1082.474	95.524	382.172	-947.854	22.903	762.807	-910.104	11.196	379.985
